<?xml version="1.0" encoding="utf-8"?>
<?xml-stylesheet type="text/xsl" href="rss1.xsl"?>
<rss version="2.0" xmlns:atom="http://www.w3.org/2005/Atom" xmlns:content="http://purl.org/rss/1.0/modules/content/" xmlns:dc="http://purl.org/dc/elements/1.1/" xmlns:media="http://search.yahoo.com/mrss/">
<channel>
 <title>Getty</title>
 <link>http://www.gettyimg.com/</link>
 <atom:link href="http://www.gettyimg.com/" rel="self" type="application/rss+xml" />

 
                <item>
                <title><![CDATA[【PRORES HD】Natalia Lacunza - Muchas Cosas |ProRes 1080|]]></title>
                <link><![CDATA[https://sharemania.us/threads/natalia-lacunza-muchas-cosas-prores-1080.229233/]]></link>
                <description><![CDATA[<article>
<blockquote class="messageText SelectQuoteContainer ugc baseHtml">
<div style="text-align: center"><img src="https://i.imgur.com/93FNeIJ.gif" class="bbCodeImage LbImage" alt="[​IMG]" data-url="https://i.imgur.com/93FNeIJ.gif" style=""><br>
<br>
​</div>
<div class="ToggleTriggerAnchor bbCodeSpoilerContainer">
<button type="button" class="button bbCodeSpoilerButton ToggleTrigger Tooltip JsOnly" data-target="> .SpoilerTarget"><span>Spoiler: <span class="SpoilerTitle">ProRes</span></span></button>
<div class="SpoilerTarget bbCodeSpoilerText">
<div class="bbCodeBlock bbCodeCode">
<div class="type">Code:</div>
<pre>Format                                   : MPEG-4
Format profile                           : QuickTime
Codec ID                                 : qt   2005.03 (qt  )
File size                                : 3.78 GiB
Duration                                 : 2 min 50 s
Overall bit rate mode                    : Variable
Overall bit rate                         : 191 Mb/s
Encoded date                             : UTC 2022-03-01 10:35:48
Tagged date                              : UTC 2022-03-01 10:49:50
Writing library                          : Apple QuickTime
TIM                                      : 00:00:00:24
TSC                                      : 25
TSZ                                      : 1

Video
ID                                       : 1
Format                                   : ProRes
Format version                           : Version 0
Format profile                           : 422 HQ
Codec ID                                 : apch
Duration                                 : 2 min 50 s
Bit rate mode                            : Variable
Bit rate                                 : 189 Mb/s
Width                                    : 1 920 pixels
Height                                   : 1 080 pixels
Display aspect ratio                     : 16:9
Frame rate mode                          : Constant
Frame rate                               : 25.000 FPS
Color space                              : YUV
Chroma subsampling                       : 4:2:2
Scan type                                : Progressive
Bits/(Pixel*Frame)                       : 3.648
Stream size                              : 3.75 GiB (99%)
Writing library                          : Apple
Language                                 : English
Encoded date                             : UTC 2022-03-01 10:35:48
Tagged date                              : UTC 2022-03-01 10:35:48
Color primaries                          : BT.709
Transfer characteristics                 : BT.709
Matrix coefficients                      : BT.709
Menus                                    : 0

Audio
ID                                       : 2
Format                                   : PCM
Format settings                          : Little / Signed
Codec ID                                 : sowt
Duration                                 : 2 min 50 s
Bit rate mode                            : Constant
Bit rate                                 : 1 536 kb/s
Channel(s)                               : 2 channels
Channel layout                           : L R
Sampling rate                            : 48.0 kHz
Bit depth                                : 16 bits
Stream size                              : 31.2 MiB (1%)
Language                                 : English
Encoded date                             : UTC 2022-03-01 10:35:48
Tagged date                              : UTC 2022-03-01 10:35:48
Menus                                    : 0

Other
ID                                       : 3
Type                                     : Time code
Format                                   : QuickTime TC
Duration                                 : 2 min 50 s
Frame rate                               : 25.000 FPS
Time code of first frame                 : 00:00:00:24
Time code, striped                       : Yes
Language                                 : English
Encoded date                             : UTC 2022-03-01 10:35:48
Tagged date                              : UTC 2022-03-01 10:35:48</pre>
</div><div style="text-align: center">​</div></div>
</div><div style="text-align: center"><br>
<br>
<div class="bbCodeBlock bbCodeVfcHH HiddenContent">
<div class="attribution type">Hidden Content:</div>
<blockquote>You must reply before you can see the hidden data contained here.</blockquote>
</div></div>
<div class="messageTextEndMarker">&nbsp;</div>
</blockquote>
</article>]]></description>
                <author><![CDATA[fstambuk]]></author>
                </item>

                
                <item>
                <title><![CDATA[【SD】DVD - Eloy Ft. Zion, Jowell &amp; Randy - Fuera Del Planeta (Remix) (VOB)]]></title>
                <link><![CDATA[https://sharemania.us/threads/eloy-ft-zion-jowell-randy-fuera-del-planeta-remix-vob.229234/]]></link>
                <description><![CDATA[<article>
<blockquote class="messageText SelectQuoteContainer ugc baseHtml">
<img src="https://i.ibb.co/fF2JVMt/Eloy-Ft-Zion-Jowell-Randy-Fuera-Del-Planeta-Remix-VOB-thumbs.jpg" class="bbCodeImage LbImage" alt="[​IMG]" data-url="https://i.ibb.co/fF2JVMt/Eloy-Ft-Zion-Jowell-Randy-Fuera-Del-Planeta-Remix-VOB-thumbs.jpg" style=""> <br>
<div class="bbCodeBlock bbCodeVfcHH HiddenContent">
<div class="attribution type">Hidden Content:</div>
<blockquote>You must either reply or click 'Like' to see the hidden information contained here.</blockquote>
</div>
<div class="messageTextEndMarker">&nbsp;</div>
</blockquote>
</article>]]></description>
                <author><![CDATA[swimmingpools]]></author>
                </item>

                </channel></rss>